<?xml version="1.0" encoding="UTF-8"?>
<!DOCTYPE svg PUBLIC "-//W3C//DTD SVG 1.1//EN" "http://www.w3.org/Graphics/SVG/1.1/DTD/svg11.dtd">
<svg version="1.2" width="78.62mm" height="66.84mm" viewBox="6898 5300 7862 6684" preserveAspectRatio="xMidYMid" fill-rule="evenodd" stroke-width="28.222" stroke-linejoin="round" xmlns="http://www.w3.org/2000/svg" xmlns:ooo="http://xml.openoffice.org/svg/export" xmlns:xlink="http://www.w3.org/1999/xlink" xmlns:presentation="http://sun.com/xmlns/staroffice/presentation" xmlns:smil="http://www.w3.org/2001/SMIL20/" xmlns:anim="urn:oasis:names:tc:opendocument:xmlns:animation:1.0" xml:space="preserve">
 <defs class="ClipPathGroup">
  <clipPath id="presentation_clip_path" clipPathUnits="userSpaceOnUse">
   <rect x="6898" y="5300" width="7862" height="6684"/>
  </clipPath>
  <clipPath id="presentation_clip_path_shrink" clipPathUnits="userSpaceOnUse">
   <rect x="6905" y="5306" width="7847" height="6671"/>
  </clipPath>
 </defs>
 <defs class="TextShapeIndex">
  <g ooo:slide="id1" ooo:id-list="id3 id4 id5 id6 id7 id8 id9 id10 id11 id12 id13"/>
 </defs>
 <defs class="EmbeddedBulletChars">
  <g id="bullet-char-template(57356)" transform="scale(0.00048828125,-0.00048828125)">
   <path d="M 580,1141 L 1163,571 580,0 -4,571 580,1141 Z"/>
  </g>
  <g id="bullet-char-template(57354)" transform="scale(0.00048828125,-0.00048828125)">
   <path d="M 8,1128 L 1137,1128 1137,0 8,0 8,1128 Z"/>
  </g>
  <g id="bullet-char-template(10146)" transform="scale(0.00048828125,-0.00048828125)">
   <path d="M 174,0 L 602,739 174,1481 1456,739 174,0 Z M 1358,739 L 309,1346 659,739 1358,739 Z"/>
  </g>
  <g id="bullet-char-template(10132)" transform="scale(0.00048828125,-0.00048828125)">
   <path d="M 2015,739 L 1276,0 717,0 1260,543 174,543 174,936 1260,936 717,1481 1274,1481 2015,739 Z"/>
  </g>
  <g id="bullet-char-template(10007)" transform="scale(0.00048828125,-0.00048828125)">
   <path d="M 0,-2 C -7,14 -16,27 -25,37 L 356,567 C 262,823 215,952 215,954 215,979 228,992 255,992 264,992 276,990 289,987 310,991 331,999 354,1012 L 381,999 492,748 772,1049 836,1024 860,1049 C 881,1039 901,1025 922,1006 886,937 835,863 770,784 769,783 710,716 594,584 L 774,223 C 774,196 753,168 711,139 L 727,119 C 717,90 699,76 672,76 641,76 570,178 457,381 L 164,-76 C 142,-110 111,-127 72,-127 30,-127 9,-110 8,-76 1,-67 -2,-52 -2,-32 -2,-23 -1,-13 0,-2 Z"/>
  </g>
  <g id="bullet-char-template(10004)" transform="scale(0.00048828125,-0.00048828125)">
   <path d="M 285,-33 C 182,-33 111,30 74,156 52,228 41,333 41,471 41,549 55,616 82,672 116,743 169,778 240,778 293,778 328,747 346,684 L 369,508 C 377,444 397,411 428,410 L 1163,1116 C 1174,1127 1196,1133 1229,1133 1271,1133 1292,1118 1292,1087 L 1292,965 C 1292,929 1282,901 1262,881 L 442,47 C 390,-6 338,-33 285,-33 Z"/>
  </g>
  <g id="bullet-char-template(9679)" transform="scale(0.00048828125,-0.00048828125)">
   <path d="M 813,0 C 632,0 489,54 383,161 276,268 223,411 223,592 223,773 276,916 383,1023 489,1130 632,1184 813,1184 992,1184 1136,1130 1245,1023 1353,916 1407,772 1407,592 1407,412 1353,268 1245,161 1136,54 992,0 813,0 Z"/>
  </g>
  <g id="bullet-char-template(8226)" transform="scale(0.00048828125,-0.00048828125)">
   <path d="M 346,457 C 273,457 209,483 155,535 101,586 74,649 74,723 74,796 101,859 155,911 209,963 273,989 346,989 419,989 480,963 531,910 582,859 608,796 608,723 608,648 583,586 532,535 482,483 420,457 346,457 Z"/>
  </g>
  <g id="bullet-char-template(8211)" transform="scale(0.00048828125,-0.00048828125)">
   <path d="M -4,459 L 1135,459 1135,606 -4,606 -4,459 Z"/>
  </g>
  <g id="bullet-char-template(61548)" transform="scale(0.00048828125,-0.00048828125)">
   <path d="M 173,740 C 173,903 231,1043 346,1159 462,1274 601,1332 765,1332 928,1332 1067,1274 1183,1159 1299,1043 1357,903 1357,740 1357,577 1299,437 1183,322 1067,206 928,148 765,148 601,148 462,206 346,322 231,437 173,577 173,740 Z"/>
  </g>
 </defs>
 <defs class="TextEmbeddedBitmaps"/>
 <g class="SlideGroup">
  <g>
   <g id="container-id1">
    <g id="id1" class="Slide" clip-path="url(#presentation_clip_path)">
     <g class="Page">
      <g class="Group">
       <g class="Group">
        <g class="com.sun.star.drawing.CustomShape">
         <g id="id3">
          <rect class="BoundingBox" stroke="none" fill="none" x="6898" y="5643" width="5074" height="5074"/>
          <path fill="rgb(217,77,34)" stroke="none" d="M 6899,8179 L 6899,8179 6902,8046 6913,7914 6930,7782 6954,7652 6985,7523 7023,7396 7067,7270 7118,7148 7175,7028 7239,6911 7308,6798 7383,6689 7464,6583 7550,6482 7641,6386 7738,6295 7839,6209 7944,6128 8053,6052 8166,5983 8283,5920 8403,5863 8525,5812 8651,5767 8778,5730 8907,5699 9037,5674 9169,5657 9301,5647 9434,5643 9434,5643 9567,5646 9699,5657 9831,5674 9961,5698 10090,5729 10217,5767 10342,5811 10465,5862 10585,5919 10702,5983 10815,6052 10924,6127 11029,6208 11130,6294 11227,6386 11318,6482 11404,6583 11485,6688 11560,6798 11629,6911 11693,7028 11750,7148 11801,7270 11845,7395 11883,7523 11914,7652 11938,7782 11955,7914 11966,8046 11969,8179 11969,8179 11966,8312 11955,8444 11938,8576 11914,8706 11883,8835 11845,8962 11801,9088 11750,9210 11693,9330 11629,9447 11560,9560 11485,9669 11404,9775 11318,9876 11227,9972 11130,10063 11029,10149 10924,10230 10815,10306 10702,10375 10585,10438 10465,10495 10343,10546 10217,10591 10090,10628 9961,10659 9831,10684 9699,10701 9567,10711 9434,10715 9434,10714 9301,10711 9169,10700 9037,10683 8907,10659 8778,10628 8651,10590 8525,10546 8403,10495 8283,10438 8166,10374 8053,10305 7944,10230 7838,10149 7737,10063 7641,9972 7550,9875 7464,9774 7383,9669 7307,9560 7238,9447 7175,9330 7118,9210 7067,9088 7022,8962 6985,8835 6954,8706 6929,8576 6912,8444 6902,8312 6898,8179 6899,8179 Z M 6899,5643 L 6899,5643 Z M 11971,10716 L 11971,10716 Z"/>
         </g>
        </g>
        <g class="Group">
         <g class="com.sun.star.drawing.CustomShape">
          <g id="id4">
           <rect class="BoundingBox" stroke="none" fill="none" x="8776" y="8050" width="5268" height="3754"/>
           <path fill="none" stroke="rgb(30,82,114)" stroke-width="194" stroke-linejoin="miter" d="M 8873,8383 L 8873,8383 8873,8371 8874,8358 8876,8346 8878,8334 8881,8322 8885,8310 8889,8298 8893,8287 8899,8276 8905,8265 8911,8254 8918,8244 8926,8234 8934,8225 8942,8216 8951,8208 8960,8200 8970,8192 8980,8185 8991,8179 9002,8173 9013,8167 9024,8163 9036,8159 9048,8155 9060,8152 9072,8150 9084,8148 9097,8147 9109,8147 13708,8147 13708,8147 13720,8147 13733,8148 13745,8150 13757,8152 13769,8155 13781,8159 13793,8163 13804,8167 13815,8173 13826,8179 13837,8185 13847,8192 13857,8200 13866,8208 13875,8216 13883,8225 13891,8234 13899,8244 13906,8254 13912,8265 13918,8276 13924,8287 13928,8298 13932,8310 13936,8322 13939,8334 13941,8346 13943,8358 13944,8371 13944,8383 13945,11468 13944,11468 13944,11480 13943,11493 13941,11505 13939,11517 13936,11529 13933,11541 13928,11552 13924,11564 13918,11575 13913,11586 13906,11596 13899,11606 13892,11616 13884,11626 13875,11635 13866,11643 13857,11651 13847,11659 13837,11666 13827,11672 13816,11678 13805,11683 13793,11688 13782,11692 13770,11696 13758,11699 13746,11701 13734,11703 13721,11704 13709,11704 9109,11705 9109,11704 9097,11704 9084,11703 9072,11701 9060,11699 9048,11696 9036,11693 9025,11688 9013,11684 9002,11678 8991,11673 8981,11666 8971,11659 8961,11652 8951,11644 8942,11635 8934,11626 8926,11617 8918,11607 8911,11597 8905,11587 8899,11576 8894,11565 8889,11553 8885,11542 8881,11530 8878,11518 8876,11506 8874,11494 8873,11481 8873,11469 8873,8383 Z"/>
          </g>
         </g>
         <g class="com.sun.star.drawing.CustomShape">
          <g id="id5">
           <rect class="BoundingBox" stroke="none" fill="none" x="8065" y="11670" width="6697" height="315"/>
           <path fill="rgb(30,82,114)" stroke="none" d="M 14676,11737 L 14631,11918 8196,11918 8150,11737 14676,11737 Z M 14676,11918 L 14676,11918 Z M 8150,11737 L 8150,11737 Z"/>
           <path fill="none" stroke="rgb(30,82,114)" stroke-width="132" stroke-linejoin="miter" d="M 14676,11737 L 14631,11918 8196,11918 8150,11737 14676,11737 Z"/>
          </g>
         </g>
         <g class="com.sun.star.drawing.CustomShape">
          <g id="id6">
           <rect class="BoundingBox" stroke="none" fill="none" x="10803" y="11664" width="1218" height="236"/>
           <path fill="rgb(255,255,255)" stroke="none" d="M 10803,11703 L 10803,11703 10803,11701 10803,11699 10804,11697 10804,11695 10804,11693 10805,11691 10806,11689 10807,11687 10808,11685 10809,11683 10810,11681 10811,11679 10812,11678 10814,11676 10815,11675 10817,11673 10818,11672 10820,11671 10822,11670 10824,11669 10826,11668 10828,11667 10830,11666 10832,11665 10834,11665 10836,11665 10838,11664 10840,11664 10842,11664 11980,11664 11980,11664 11982,11664 11984,11664 11986,11665 11988,11665 11990,11665 11992,11666 11994,11667 11996,11668 11998,11669 12000,11670 12002,11671 12004,11672 12005,11673 12007,11675 12008,11676 12010,11678 12011,11679 12012,11681 12013,11683 12014,11685 12015,11687 12016,11689 12017,11691 12018,11693 12018,11695 12018,11697 12019,11699 12019,11701 12019,11703 12020,11858 12020,11858 12020,11860 12020,11862 12019,11864 12019,11866 12019,11868 12018,11870 12017,11872 12016,11874 12015,11876 12014,11878 12013,11880 12012,11882 12011,11883 12009,11885 12008,11886 12006,11888 12005,11889 12003,11890 12001,11891 11999,11892 11997,11893 11995,11894 11993,11895 11991,11896 11989,11896 11987,11896 11985,11897 11983,11897 11981,11897 10842,11898 10842,11898 10840,11898 10838,11898 10836,11897 10834,11897 10832,11897 10830,11896 10828,11895 10826,11894 10824,11893 10822,11892 10820,11891 10818,11890 10817,11889 10815,11887 10814,11886 10812,11884 10811,11883 10810,11881 10809,11879 10808,11877 10807,11875 10806,11873 10805,11871 10804,11869 10804,11867 10804,11865 10803,11863 10803,11861 10803,11859 10803,11703 Z M 10803,11664 L 10803,11664 Z M 12020,11898 L 12020,11898 Z"/>
          </g>
         </g>
         <g class="com.sun.star.drawing.CustomShape">
          <g id="id7">
           <rect class="BoundingBox" stroke="none" fill="none" x="11271" y="8009" width="276" height="275"/>
           <path fill="rgb(255,255,255)" stroke="none" d="M 11272,8146 L 11272,8146 11272,8139 11273,8132 11273,8125 11275,8119 11276,8112 11278,8105 11280,8099 11283,8092 11286,8086 11289,8080 11292,8074 11296,8068 11300,8063 11304,8057 11309,8052 11314,8047 11319,8042 11324,8038 11330,8034 11336,8030 11342,8027 11348,8023 11354,8020 11360,8018 11367,8016 11374,8014 11380,8012 11387,8011 11394,8010 11401,8009 11408,8009 11408,8009 11415,8009 11422,8010 11429,8011 11436,8012 11443,8014 11450,8016 11457,8018 11463,8021 11469,8024 11476,8027 11482,8031 11488,8035 11493,8039 11499,8044 11504,8049 11509,8054 11513,8059 11518,8065 11522,8071 11525,8077 11529,8083 11532,8090 11535,8096 11537,8103 11539,8110 11541,8117 11542,8124 11543,8131 11544,8138 11544,8145 11544,8145 11544,8152 11543,8159 11542,8166 11541,8173 11539,8180 11537,8187 11535,8194 11532,8200 11529,8207 11526,8213 11522,8219 11518,8225 11514,8231 11509,8236 11504,8242 11499,8246 11494,8251 11488,8255 11482,8260 11476,8263 11470,8267 11463,8270 11457,8273 11450,8275 11443,8277 11436,8279 11429,8280 11422,8281 11415,8282 11408,8282 11408,8282 11401,8282 11394,8281 11387,8280 11380,8279 11373,8277 11366,8275 11359,8273 11353,8270 11346,8267 11340,8264 11334,8260 11328,8256 11322,8252 11317,8247 11311,8242 11307,8237 11302,8232 11298,8226 11293,8220 11290,8214 11286,8208 11283,8201 11280,8195 11278,8188 11276,8181 11274,8174 11273,8167 11272,8160 11271,8153 11271,8146 11272,8146 Z M 11272,8009 L 11272,8009 Z M 11546,8283 L 11546,8283 Z"/>
          </g>
         </g>
        </g>
        <g class="com.sun.star.drawing.CustomShape">
         <g id="id8">
          <rect class="BoundingBox" stroke="none" fill="none" x="6898" y="5643" width="5074" height="5074"/>
          <path fill="rgb(217,77,34)" fill-opacity="0.439" stroke="rgb(255,255,255)" stroke-opacity="0.439" d="M 6899,8179 L 6899,8179 6902,8046 6913,7914 6930,7782 6954,7652 6985,7523 7023,7396 7067,7270 7118,7148 7175,7028 7239,6911 7308,6798 7383,6689 7464,6583 7550,6482 7641,6386 7738,6295 7839,6209 7944,6128 8053,6052 8166,5983 8283,5920 8403,5863 8525,5812 8651,5767 8778,5730 8907,5699 9037,5674 9169,5657 9301,5647 9434,5643 9434,5643 9567,5646 9699,5657 9831,5674 9961,5698 10090,5729 10217,5767 10342,5811 10465,5862 10585,5919 10702,5983 10815,6052 10924,6127 11029,6208 11130,6294 11227,6386 11318,6482 11404,6583 11485,6688 11560,6798 11629,6911 11693,7028 11750,7148 11801,7270 11845,7395 11883,7523 11914,7652 11938,7782 11955,7914 11966,8046 11969,8179 11969,8179 11966,8312 11955,8444 11938,8576 11914,8706 11883,8835 11845,8962 11801,9088 11750,9210 11693,9330 11629,9447 11560,9560 11485,9669 11404,9775 11318,9876 11227,9972 11130,10063 11029,10149 10924,10230 10815,10306 10702,10375 10585,10438 10465,10495 10343,10546 10217,10591 10090,10628 9961,10659 9831,10684 9699,10701 9567,10711 9434,10715 9434,10714 9301,10711 9169,10700 9037,10683 8907,10659 8778,10628 8651,10590 8525,10546 8403,10495 8283,10438 8166,10374 8053,10305 7944,10230 7838,10149 7737,10063 7641,9972 7550,9875 7464,9774 7383,9669 7307,9560 7238,9447 7175,9330 7118,9210 7067,9088 7022,8962 6985,8835 6954,8706 6929,8576 6912,8444 6902,8312 6898,8179 6899,8179 Z M 6899,5643 L 6899,5643 Z M 11971,10716 L 11971,10716 Z"/>
         </g>
        </g>
       </g>
       <g class="Group">
        <g class="com.sun.star.drawing.CustomShape">
         <g id="id9">
          <rect class="BoundingBox" stroke="none" fill="none" x="12453" y="6657" width="850" height="3315"/>
          <path fill="rgb(255,255,255)" stroke="none" d="M 12497,7037 L 12497,7037 12497,7019 12499,7002 12501,6984 12504,6967 12508,6950 12513,6933 12519,6917 12526,6900 12534,6884 12542,6869 12551,6854 12561,6840 12572,6826 12583,6812 12595,6799 12608,6787 12622,6776 12636,6765 12650,6755 12665,6746 12680,6738 12696,6730 12713,6723 12729,6717 12746,6712 12763,6708 12780,6705 12798,6703 12815,6701 12833,6701 12921,6701 12921,6701 12939,6701 12956,6703 12974,6705 12991,6708 13008,6712 13025,6717 13041,6723 13058,6730 13074,6738 13089,6746 13104,6755 13118,6765 13132,6776 13146,6787 13159,6799 13171,6812 13182,6826 13193,6840 13203,6854 13212,6869 13220,6884 13228,6900 13235,6917 13241,6933 13246,6950 13250,6967 13253,6984 13255,7002 13257,7019 13257,7037 13258,9590 13258,9590 13258,9608 13256,9625 13254,9643 13251,9660 13247,9677 13242,9694 13236,9710 13229,9727 13221,9743 13213,9758 13204,9773 13194,9787 13183,9801 13172,9815 13160,9828 13147,9840 13133,9851 13119,9862 13105,9872 13090,9881 13075,9889 13059,9897 13042,9904 13026,9910 13009,9915 12992,9919 12975,9922 12957,9924 12940,9926 12922,9926 12833,9927 12833,9927 12815,9927 12798,9925 12780,9923 12763,9920 12746,9916 12729,9911 12713,9905 12696,9898 12680,9890 12665,9882 12650,9873 12636,9863 12622,9852 12608,9841 12595,9829 12583,9816 12572,9802 12561,9788 12551,9774 12542,9759 12534,9744 12526,9728 12519,9711 12513,9695 12508,9678 12504,9661 12501,9644 12499,9626 12497,9609 12497,9591 12497,7037 Z M 12497,6701 L 12497,6701 Z M 13258,9927 L 13258,9927 Z"/>
          <path fill="none" stroke="rgb(30,82,114)" stroke-width="88" stroke-linejoin="miter" d="M 12497,7037 L 12497,7037 12497,7019 12499,7002 12501,6984 12504,6967 12508,6950 12513,6933 12519,6917 12526,6900 12534,6884 12542,6869 12551,6854 12561,6840 12572,6826 12583,6812 12595,6799 12608,6787 12622,6776 12636,6765 12650,6755 12665,6746 12680,6738 12696,6730 12713,6723 12729,6717 12746,6712 12763,6708 12780,6705 12798,6703 12815,6701 12833,6701 12921,6701 12921,6701 12939,6701 12956,6703 12974,6705 12991,6708 13008,6712 13025,6717 13041,6723 13058,6730 13074,6738 13089,6746 13104,6755 13118,6765 13132,6776 13146,6787 13159,6799 13171,6812 13182,6826 13193,6840 13203,6854 13212,6869 13220,6884 13228,6900 13235,6917 13241,6933 13246,6950 13250,6967 13253,6984 13255,7002 13257,7019 13257,7037 13258,9590 13258,9590 13258,9608 13256,9625 13254,9643 13251,9660 13247,9677 13242,9694 13236,9710 13229,9727 13221,9743 13213,9758 13204,9773 13194,9787 13183,9801 13172,9815 13160,9828 13147,9840 13133,9851 13119,9862 13105,9872 13090,9881 13075,9889 13059,9897 13042,9904 13026,9910 13009,9915 12992,9919 12975,9922 12957,9924 12940,9926 12922,9926 12833,9927 12833,9927 12815,9927 12798,9925 12780,9923 12763,9920 12746,9916 12729,9911 12713,9905 12696,9898 12680,9890 12665,9882 12650,9873 12636,9863 12622,9852 12608,9841 12595,9829 12583,9816 12572,9802 12561,9788 12551,9774 12542,9759 12534,9744 12526,9728 12519,9711 12513,9695 12508,9678 12504,9661 12501,9644 12499,9626 12497,9609 12497,9591 12497,7037 Z"/>
         </g>
        </g>
        <g class="com.sun.star.drawing.CustomShape">
         <g id="id10">
          <rect class="BoundingBox" stroke="none" fill="none" x="12220" y="6592" width="1312" height="329"/>
          <path fill="rgb(30,82,114)" stroke="none" d="M 13513,6724 L 13513,6724 13513,6718 13512,6712 13512,6706 13511,6700 13509,6694 13507,6689 13505,6683 13503,6678 13501,6672 13498,6667 13495,6662 13491,6657 13488,6652 13484,6648 13480,6643 13475,6639 13471,6635 13466,6632 13461,6628 13456,6625 13451,6622 13445,6620 13440,6618 13434,6616 13429,6614 13423,6612 13417,6611 13411,6611 13405,6610 13399,6610 12353,6610 12353,6610 12347,6610 12341,6611 12335,6611 12329,6612 12323,6614 12318,6616 12312,6618 12307,6620 12301,6622 12296,6625 12291,6628 12286,6632 12281,6635 12277,6639 12272,6643 12268,6648 12264,6652 12261,6657 12257,6662 12254,6667 12251,6672 12249,6678 12247,6683 12245,6689 12243,6694 12241,6700 12240,6706 12240,6712 12239,6718 12239,6724 12238,6787 12238,6787 12238,6793 12239,6799 12239,6805 12240,6811 12242,6817 12244,6822 12246,6828 12248,6833 12250,6839 12253,6844 12256,6849 12260,6854 12263,6859 12267,6863 12271,6868 12276,6872 12280,6876 12285,6879 12290,6883 12295,6886 12300,6889 12306,6891 12311,6893 12317,6895 12322,6897 12328,6899 12334,6900 12340,6900 12346,6901 12352,6901 13399,6902 13399,6902 13405,6902 13411,6901 13417,6901 13423,6900 13429,6898 13434,6896 13440,6894 13445,6892 13451,6890 13456,6887 13461,6884 13466,6880 13471,6877 13475,6873 13480,6869 13484,6864 13488,6860 13491,6855 13495,6850 13498,6845 13501,6840 13503,6834 13505,6829 13507,6823 13509,6818 13511,6812 13512,6806 13512,6800 13513,6794 13513,6788 13513,6724 Z M 13513,6610 L 13513,6610 Z M 12238,6902 L 12238,6902 Z"/>
          <path fill="none" stroke="rgb(30,82,114)" stroke-width="35" stroke-linejoin="miter" d="M 13513,6724 L 13513,6724 13513,6718 13512,6712 13512,6706 13511,6700 13509,6694 13507,6689 13505,6683 13503,6678 13501,6672 13498,6667 13495,6662 13491,6657 13488,6652 13484,6648 13480,6643 13475,6639 13471,6635 13466,6632 13461,6628 13456,6625 13451,6622 13445,6620 13440,6618 13434,6616 13429,6614 13423,6612 13417,6611 13411,6611 13405,6610 13399,6610 12353,6610 12353,6610 12347,6610 12341,6611 12335,6611 12329,6612 12323,6614 12318,6616 12312,6618 12307,6620 12301,6622 12296,6625 12291,6628 12286,6632 12281,6635 12277,6639 12272,6643 12268,6648 12264,6652 12261,6657 12257,6662 12254,6667 12251,6672 12249,6678 12247,6683 12245,6689 12243,6694 12241,6700 12240,6706 12240,6712 12239,6718 12239,6724 12238,6787 12238,6787 12238,6793 12239,6799 12239,6805 12240,6811 12242,6817 12244,6822 12246,6828 12248,6833 12250,6839 12253,6844 12256,6849 12260,6854 12263,6859 12267,6863 12271,6868 12276,6872 12280,6876 12285,6879 12290,6883 12295,6886 12300,6889 12306,6891 12311,6893 12317,6895 12322,6897 12328,6899 12334,6900 12340,6900 12346,6901 12352,6901 13399,6902 13399,6902 13405,6902 13411,6901 13417,6901 13423,6900 13429,6898 13434,6896 13440,6894 13445,6892 13451,6890 13456,6887 13461,6884 13466,6880 13471,6877 13475,6873 13480,6869 13484,6864 13488,6860 13491,6855 13495,6850 13498,6845 13501,6840 13503,6834 13505,6829 13507,6823 13509,6818 13511,6812 13512,6806 13512,6800 13513,6794 13513,6788 13513,6724 Z"/>
         </g>
        </g>
        <g class="com.sun.star.drawing.CustomShape">
         <g id="id11">
          <rect class="BoundingBox" stroke="none" fill="none" x="12269" y="5901" width="372" height="373"/>
          <path fill="rgb(30,82,114)" stroke="none" d="M 12269,6086 L 12269,6086 12269,6076 12270,6067 12271,6057 12273,6048 12275,6038 12278,6029 12281,6020 12285,6011 12289,6002 12294,5993 12299,5985 12304,5977 12310,5970 12317,5962 12323,5955 12330,5949 12338,5942 12345,5936 12353,5931 12362,5926 12370,5921 12379,5917 12388,5913 12397,5910 12406,5907 12416,5905 12425,5903 12435,5902 12444,5901 12454,5901 12454,5901 12464,5901 12473,5902 12483,5903 12492,5905 12502,5907 12511,5910 12520,5913 12529,5917 12538,5921 12547,5926 12555,5931 12563,5936 12570,5942 12578,5949 12585,5955 12591,5962 12598,5970 12604,5977 12609,5985 12614,5994 12619,6002 12623,6011 12627,6020 12630,6029 12633,6038 12635,6048 12637,6057 12638,6067 12639,6076 12639,6086 12638,6086 12638,6096 12637,6105 12636,6115 12634,6124 12632,6134 12629,6143 12626,6152 12622,6161 12618,6170 12613,6178 12608,6186 12603,6194 12597,6202 12591,6209 12584,6216 12577,6223 12570,6229 12562,6235 12554,6241 12546,6246 12538,6251 12529,6255 12520,6258 12511,6262 12502,6264 12492,6267 12483,6269 12473,6270 12464,6271 12454,6271 12454,6270 12444,6270 12435,6269 12425,6268 12416,6266 12406,6264 12397,6261 12388,6258 12379,6254 12370,6250 12362,6245 12354,6240 12346,6235 12338,6229 12331,6223 12324,6216 12317,6209 12311,6202 12305,6194 12299,6186 12294,6178 12289,6170 12285,6161 12282,6152 12278,6143 12276,6134 12273,6124 12271,6115 12270,6105 12269,6096 12269,6086 12269,6086 Z M 12269,5901 L 12269,5901 Z M 12640,6272 L 12640,6272 Z"/>
         </g>
        </g>
        <g class="com.sun.star.drawing.CustomShape">
         <g id="id12">
          <rect class="BoundingBox" stroke="none" fill="none" x="12927" y="5300" width="600" height="600"/>
          <path fill="rgb(30,82,114)" stroke="none" d="M 12927,5599 L 12927,5599 12927,5583 12929,5568 12931,5552 12934,5537 12937,5522 12942,5507 12947,5492 12953,5477 12960,5463 12967,5449 12975,5436 12984,5423 12994,5411 13004,5399 13015,5388 13026,5377 13038,5367 13050,5357 13063,5348 13077,5340 13090,5333 13104,5326 13119,5320 13134,5315 13149,5310 13164,5307 13179,5304 13195,5302 13210,5300 13226,5300 13226,5300 13242,5300 13257,5302 13273,5304 13288,5307 13303,5310 13318,5315 13333,5320 13348,5326 13362,5333 13376,5340 13389,5348 13402,5357 13414,5367 13426,5377 13437,5388 13448,5399 13458,5411 13468,5423 13477,5436 13485,5450 13492,5463 13499,5477 13505,5492 13510,5507 13515,5522 13518,5537 13521,5552 13523,5568 13525,5583 13525,5599 13524,5599 13524,5615 13522,5630 13520,5646 13517,5661 13514,5676 13509,5691 13504,5706 13498,5720 13492,5734 13484,5748 13476,5762 13467,5774 13458,5787 13448,5799 13437,5810 13425,5821 13414,5831 13401,5841 13388,5849 13375,5858 13361,5865 13347,5872 13333,5878 13318,5883 13303,5888 13288,5891 13273,5894 13257,5896 13242,5898 13226,5898 13226,5897 13210,5897 13195,5895 13179,5893 13164,5890 13149,5887 13134,5882 13119,5877 13105,5871 13091,5865 13077,5857 13063,5849 13051,5840 13038,5831 13026,5821 13015,5810 13004,5798 12994,5787 12984,5774 12976,5761 12967,5748 12960,5734 12953,5720 12947,5706 12942,5691 12937,5676 12934,5661 12931,5646 12929,5630 12927,5615 12927,5599 12927,5599 Z M 12927,5300 L 12927,5300 Z M 13526,5899 L 13526,5899 Z"/>
         </g>
        </g>
        <g class="com.sun.star.drawing.CustomShape">
         <g id="id13">
          <rect class="BoundingBox" stroke="none" fill="none" x="12737" y="8080" width="292" height="1616"/>
          <path fill="rgb(30,82,114)" stroke="none" d="M 12737,8208 L 12737,8208 12737,8201 12738,8195 12739,8188 12740,8181 12741,8175 12743,8168 12746,8162 12748,8156 12751,8150 12754,8144 12758,8138 12761,8133 12766,8127 12770,8122 12774,8117 12779,8113 12784,8109 12790,8104 12795,8101 12801,8097 12807,8094 12813,8091 12819,8089 12825,8086 12832,8084 12838,8083 12845,8082 12852,8081 12858,8080 12865,8080 12899,8080 12899,8080 12906,8080 12912,8081 12919,8082 12926,8083 12932,8084 12939,8086 12945,8089 12951,8091 12957,8094 12963,8097 12969,8101 12974,8104 12980,8109 12985,8113 12990,8117 12994,8122 12998,8127 13003,8133 13006,8138 13010,8144 13013,8150 13016,8156 13018,8162 13021,8168 13023,8175 13024,8181 13025,8188 13026,8195 13027,8201 13027,8208 13028,9566 13027,9566 13027,9573 13026,9579 13025,9586 13024,9592 13023,9599 13021,9605 13019,9612 13016,9618 13013,9624 13010,9630 13007,9635 13003,9641 12999,9646 12994,9651 12990,9656 12985,9661 12980,9665 12975,9669 12969,9673 12964,9677 12958,9680 12952,9683 12946,9685 12939,9687 12933,9689 12926,9691 12920,9692 12913,9693 12907,9694 12900,9694 12865,9695 12865,9694 12858,9694 12852,9693 12845,9692 12839,9691 12832,9690 12826,9688 12819,9686 12813,9683 12807,9680 12801,9677 12796,9674 12790,9670 12785,9666 12780,9661 12775,9657 12770,9652 12766,9647 12762,9642 12758,9636 12754,9631 12751,9625 12748,9619 12746,9613 12744,9606 12742,9600 12740,9593 12739,9587 12738,9580 12737,9574 12737,9567 12737,8208 Z M 12737,8080 L 12737,8080 Z M 13028,9695 L 13028,9695 Z"/>
         </g>
        </g>
       </g>
      </g>
     </g>
    </g>
   </g>
  </g>
 </g>
</svg>